<?xml version="1.0" ?><svg id="Layer_1" style="enable-background:new 0 0 65 65;" version="1.1" viewBox="0 0 65 65" xml:space="preserve" xmlns="http://www.w3.org/2000/svg" xmlns:xlink="http://www.w3.org/1999/xlink"><style type="text/css">
	.st0{fill:#1C1F20;}
</style><g><path class="st0" d="M63.5,5.5c-0.6,0-1,0.4-1,1v11c0,0.6,0.4,1,1,1s1-0.4,1-1v-11C64.5,5.9,64.1,5.5,63.5,5.5z"/><path class="st0" d="M63.5,0.5c-0.6,0-1,0.4-1,1v1c0,0.6,0.4,1,1,1s1-0.4,1-1v-1C64.5,0.9,64.1,0.5,63.5,0.5z"/><path class="st0" d="M62.5,60.5h-1v-1c0-0.6-0.4-1-1-1s-1,0.4-1,1v1h-1c-0.6,0-1,0.4-1,1s0.4,1,1,1h1v1c0,0.6,0.4,1,1,1s1-0.4,1-1   v-1h1c0.6,0,1-0.4,1-1S63.1,60.5,62.5,60.5z"/><path class="st0" d="M5.5,7.5h-1v-1c0-0.6-0.4-1-1-1s-1,0.4-1,1v1h-1c-0.6,0-1,0.4-1,1s0.4,1,1,1h1v1c0,0.6,0.4,1,1,1s1-0.4,1-1v-1   h1c0.6,0,1-0.4,1-1S6.1,7.5,5.5,7.5z"/><path class="st0" d="M13.5,36.5c-0.7-1.4-1.1-2.9-1.1-3.9c0-2.1,1.3-3.9,3.1-4.7c0.3-4.1,1.1-8,2.1-11.4H9.6c-1.9,3.6-3,7.7-3,12.1   c0,3.8,0.8,7.5,2.4,10.9C9.8,37.7,11.5,36.5,13.5,36.5L13.5,36.5z"/><path class="st0" d="M28.5,34.5c-0.7-1.4-1.1-2.9-1.1-3.9c0-2.4,1.7-4.5,4.1-5v-9.1H19.8c-1.1,3.3-1.8,7-2.2,11c2.7,0,5,2.3,5,5   c0,1.1-0.4,2.6-1.1,3.9h0c0.9,0,1.8,0.3,2.6,0.7C24.9,35.6,26.6,34.5,28.5,34.5L28.5,34.5z"/><path class="st0" d="M14.4,32.6c0,1.4,0.8,3.2,1.7,4.2c0,0,0,0,0,0c0.2,0.3,0.6,0.6,0.9,0.7c0,0,0,0,0.1,0c0.1,0,0.2,0.1,0.4,0.1   c0.1,0,0.2,0,0.4-0.1c0,0,0,0,0,0c0.4-0.1,0.7-0.4,0.9-0.7c0,0,0,0,0,0c0.9-1,1.7-2.9,1.7-4.2c0-1.7-1.4-3.1-3.1-3.1   S14.4,30.9,14.4,32.6z"/><path class="st0" d="M31.5,14.5V2.7c-0.2,0-0.4,0-0.6,0C26.7,3.6,23,8,20.5,14.5H31.5z"/><path class="st0" d="M46.7,14.5h7.6C51,9.4,46,5.6,40.1,3.8C42.7,6.2,45,9.9,46.7,14.5z"/><path class="st0" d="M34.1,2.7c-0.2,0-0.4,0-0.6,0v11.8h11C42,8,38.3,3.6,34.1,2.7z"/><path class="st0" d="M24.9,3.8C19,5.6,14,9.4,10.7,14.5h7.6C20,9.9,22.3,6.2,24.9,3.8z"/><path class="st0" d="M55.4,16.5h-8.1c1,3.4,1.8,7.3,2.1,11.4c1.8,0.8,3.1,2.6,3.1,4.7c0,1.1-0.4,2.6-1.1,3.9h0c2,0,3.7,1.2,4.5,2.9   c1.6-3.4,2.4-7.1,2.4-10.9C58.4,24.2,57.3,20.1,55.4,16.5z"/><path class="st0" d="M46.1,36.8C46.1,36.8,46.2,36.8,46.1,36.8c0.3,0.3,0.6,0.6,1,0.7c0,0,0,0,0.1,0c0.1,0,0.2,0.1,0.4,0.1   c0.1,0,0.2,0,0.4-0.1c0,0,0,0,0,0c0.4-0.1,0.7-0.4,0.9-0.7c0,0,0,0,0,0c0.9-1,1.7-2.9,1.7-4.2c0-1.7-1.4-3.1-3.1-3.1   s-3.1,1.4-3.1,3.1C44.4,33.9,45.2,35.8,46.1,36.8z"/><path class="st0" d="M36.5,36.5H35c-0.7,0.7-1.5,1.1-2.5,1.1c-0.9,0-1.8-0.4-2.5-1.1h-1.5c-1.7,0-3,1.3-3,3v9h1.9v-5   c0-0.6,0.4-1,1-1s1,0.4,1,1v18h2.1v-13c0-0.6,0.4-1,1-1s1,0.4,1,1v13h2.1v-18c0-0.6,0.4-1,1-1s1,0.4,1,1v5h1.9v-9   C39.5,37.8,38.2,36.5,36.5,36.5z"/><path class="st0" d="M43.5,36.5c-0.7-1.4-1.1-2.9-1.1-3.9c0-2.8,2.2-5,5-5c-0.4-4-1.1-7.7-2.2-11H33.5v9.1c2.3,0.5,4.1,2.5,4.1,5   c0,1.1-0.4,2.6-1.1,3.9h0c1.9,0,3.6,1.1,4.4,2.7C41.7,36.8,42.6,36.5,43.5,36.5L43.5,36.5z"/><path class="st0" d="M29.4,30.6c0,1.4,0.8,3.2,1.7,4.2c0,0,0,0,0,0c0.2,0.3,0.6,0.6,0.9,0.7c0,0,0,0,0.1,0c0.1,0,0.2,0.1,0.4,0.1   c0.1,0,0.2,0,0.4-0.1c0,0,0,0,0,0c0.4-0.1,0.7-0.4,0.9-0.7c0,0,0,0,0,0c0.9-1,1.7-2.9,1.7-4.2c0-1.7-1.4-3.1-3.1-3.1   S29.4,28.9,29.4,30.6z"/><path class="st0" d="M51.5,38.5H50c-0.7,0.7-1.5,1.1-2.5,1.1c-0.9,0-1.8-0.4-2.5-1.1h-1.5c-0.8,0-1.5,0.3-2,0.8c0,0.1,0,0.1,0,0.2   v11h0.9v-5c0-0.6,0.4-1,1-1s1,0.4,1,1v18h2.1v-13c0-0.6,0.4-1,1-1s1,0.4,1,1v13h2.1v-18c0-0.6,0.4-1,1-1s1,0.4,1,1v5h1.9v-9   C54.5,39.8,53.2,38.5,51.5,38.5z"/><path class="st0" d="M20,38.5c-0.7,0.7-1.5,1.1-2.5,1.1c-0.9,0-1.8-0.4-2.5-1.1h-1.5c-1.7,0-3,1.3-3,3v9h1.9v-5c0-0.6,0.4-1,1-1   s1,0.4,1,1v18h2.1v-13c0-0.6,0.4-1,1-1s1,0.4,1,1v13h2.1v-18c0-0.6,0.4-1,1-1s1,0.4,1,1v5h0.9v-11c0-0.1,0-0.1,0-0.2   c-0.5-0.5-1.2-0.8-2-0.8H20z"/></g></svg>